<?xml version="1.0" encoding="UTF-8"?>
<svg id="Layer_2" data-name="Layer 2" xmlns="http://www.w3.org/2000/svg" viewBox="0 0 5042.03 3083.26">
  <defs>
    <style>
      .cls-1 {
        fill: none;
        stroke: #000;
        stroke-linecap: round;
        stroke-miterlimit: 10;
        stroke-width: 28px;
      }
    </style>
  </defs>
  <g id="Layer_1-2" data-name="Layer 1">
    <g id="Layers">
      <path id="path_14" d="m3561.72,3083.26c-333.42,0-402.28-200.01-496.5-473.6-7.85-22.8-15.98-46.38-24.42-70.36-31.31-88.84-125.63-485.29-205.22-838.79-74.3-329.99-162.5-742.52-166.56-819.13-3.02-57.07-28.45-98.41-75.58-122.87-38.44-19.95-92.44-28.7-152.05-24.64-49.91,3.4-92.74,15.17-107.82,24.55-.95.76-7.79,7.19-24.41,43.92-11.99,26.49-26.81,63.65-44.07,110.45-33.87,91.87-75.94,217.39-125.06,373.08-99.65,315.87-216.1,718.04-319.5,1103.41-42.94,155.68-94.48,285.7-153.2,386.55-50.86,87.35-108.81,155.63-172.24,202.95-117.05,87.32-231.5,89.87-315.06,91.74-19.99.45-38.86.87-54.88,2.47-12.97,1.3-24.38,1.96-34.87,2.01h-2.01c-84.77,0-164.9-25.83-238.19-76.79-67.52-46.95-127.98-114.22-179.69-199.95-95.41-158.16-154.79-371.15-162.93-584.36-1.48-38.76-6.48-77.27-14.87-114.45-24.04-106.53-76.54-322.91-157.99-575.17C233.86,1212.35,121.9,946.65,1.82,734.55c-3.81-6.73-1.44-15.27,5.29-19.08s15.27-1.44,19.08,5.29c121.01,213.74,233.74,481.2,335.05,794.93,81.79,253.3,134.51,470.61,158.66,577.6,8.77,38.85,14,79.07,15.54,119.54,7.96,208.62,65.89,416.73,158.93,570.96,49.66,82.33,107.43,146.73,171.7,191.42,69.05,48.01,144.4,72.15,224.08,71.78,9.6-.05,20.14-.66,32.21-1.87,17.1-1.71,36.5-2.15,57.05-2.6,162.53-3.63,434.57-9.7,614.11-660.59,104.16-388.18,221.36-792.75,321.52-1109.87,49.44-156.54,91.71-282.33,125.61-373.88,17.44-47.09,32.43-84.36,44.56-110.77,18-39.21,26.97-48.6,33.37-52.62,40.09-25.16,190.39-51.67,287.77-1.12,26.41,13.71,47.44,32.18,62.52,54.92,16.79,25.32,26.25,56.04,28.12,91.32,1.17,22.17,11.25,90.78,52.56,291.78,29.22,142.19,69.48,327.81,113.36,522.68,76.84,341.27,173.55,748.33,204.31,835.63,8.48,24.07,16.62,47.7,24.49,70.55,47.59,138.17,88.69,257.5,159.66,337.67,36.77,41.54,80.04,70.97,132.28,89.98,57.44,20.9,126.08,29.56,209.85,26.47,88.29-3.25,166.51-7.06,229.7-20.78,63.61-13.81,109.54-36.88,148.92-74.8,41.45-39.91,77.45-98.68,113.29-184.94,33.71-81.15,68.91-190.09,114.12-353.23,111.96-403.98,338.1-868.35,462.94-1109.2,80.77-155.83,163.48-303.95,232.89-417.07,31.47-51.29,59.21-93.62,80.23-122.42,33.4-45.78,43.86-49.57,52.44-49.57,7.73,0,14,6.27,14,14,0,6.8-4.85,12.47-11.28,13.74-2.56,1.74-12.95,10.37-40.55,49.51-21.85,30.98-50,74.72-81.4,126.49-69.8,115.08-151.78,262.94-230.84,416.35-121.64,236.02-342.04,690.91-451.44,1085.66-45.53,164.29-81.07,274.23-115.25,356.49-37.36,89.94-75.41,151.7-119.72,194.37-91.23,87.84-210.3,96.52-397.01,103.39-11.22.39-22.17.6-32.82.6ZM2333.48,758.48s-.03.02-.04.02c.01,0,.03-.01.04-.02Zm2694.58-7.83h-.06.06Z"/>
      <path id="path_13" class="cls-1" d="m51,711.65l55,114,55,110,52,110,55,127,45,131,48,131,52,162,44,137,42,149,31,141,27,137,10,121,18,134,27,114,45,127,42,79,48.87,77.87c8.05,14.69,18.01,28.25,29.62,40.33l31.34,32.63c16.07,16.73,33.95,31.6,53.32,44.36l49.85,32.81,9.98,5.86c42.87,25.15,90.52,41.09,139.9,46.81l46.12,5.33,138-3,96-24,83-42,89-65,76-103,79-131,69-193,55-189,38-152,65-213,62-190,52-189,62-193,62-213,72-228,54.46-136.14c7.56-18.89,20.03-35.42,36.13-47.87l22.48-17.39c18.2-14.07,40.22-22.31,63.18-23.64l30.45-1.77c2.2-.13,4.4-.19,6.6-.19h108.61c17.17,0,34.13,3.88,49.59,11.34l34.5,16.66,28.14,12.88c20.14,9.21,37.15,24.09,48.98,42.81h0c3.91,6.19,7.22,12.74,9.87,19.57l24.01,61.74,20,135,42,224,31,172,51,217,48,199,25,121,44,203,38,144,38,128,38,158,58,148,31,83,19.89,48.86c10.03,24.65,23.29,47.86,39.44,69.01l3.24,4.24c20.15,26.4,44.54,49.28,72.18,67.71l14.66,9.77c24.27,16.18,50.77,28.74,78.66,37.28l20.48,6.27c32.08,9.83,65.58,14.21,99.11,12.97l138.34-5.11,72.21-1.85c29.7-.76,59.12-5.92,87.3-15.32l7.27-2.42c42.28-14.09,80.9-37.42,113.05-68.29h0c17.38-16.69,32.69-35.4,45.6-55.75l28.58-45.04c11.95-18.83,21.76-38.93,29.27-59.93l53.72-150.4,76-238,76-254,86-204,82-192,79-186,104-203,103-204,93-172,93-144,76-121"/>
      <path id="path_12" class="cls-1" d="m82,695.65l47,90,112,220,62,148,65,156,39,130,66,177,32,126,51,156,36,173,27,159,6,127,17,89,39,127,34,87,16.44,37.58c16.97,38.79,38.81,75.26,64.99,108.53l8.57,10.89,61,59,76,51,26.8,12.78c25.32,12.08,52.32,20.25,80.09,24.25l76.11,10.97,126-9,121-33,101-76,60-76,84-121,53-138,71-210,39-178,56-199,48-138,62-191,73-247,84-276,59-205,51.95-125.92c4.68-11.35,10.54-22.19,17.47-32.33l15.21-22.25c18.55-27.13,44.29-48.55,74.34-61.86h0c15.93-7.06,32.82-11.72,50.12-13.83l41.38-5.06c14.96-1.83,30.08-1.74,45.02.27l81.51,10.98,37.46,3.7c28.6,2.82,56.08,12.58,80.05,28.42l4.58,3.03c9.91,6.55,19.14,14.08,27.54,22.48l7.89,7.89c20.02,20.02,34.94,44.56,43.5,71.55l22.6,71.27c2.25,7.09,4.05,14.32,5.38,21.64l32,175.02,87,433,113,517,84,323,70,236,48,124,34.62,94.99c2.91,8,6.3,15.81,10.14,23.41l22.19,43.88c11.28,22.31,26.36,42.48,44.56,59.61h0c15.57,14.66,33.24,26.91,52.43,36.36l60.83,29.95c27.83,13.7,58.29,21.23,89.29,22.06l121.03,3.25c11.92.32,23.84-.35,35.65-2l116.33-16.3c15.24-2.14,30.21-5.9,44.65-11.23l9.31-3.44c34.73-12.82,65.56-34.37,89.52-62.58l10.82-12.74c9.72-11.45,18.22-23.89,25.36-37.11l57.27-106.11,42-149,112-329,138-371,118-264,115-256,138-264,87-175,96-152,61-95"/>
      <path id="path_11" class="cls-1" d="m115,666.65l67,141,74,141,62,132,54,132,58,149,62,191,62,207,62,198,29,174,21,194,33,187,54,111,53,120,83,91,38.29,28.11c26.98,19.81,56.84,35.36,88.54,46.12l1.57.53c41.23,13.99,85.03,18.75,128.31,13.94l29.51-3.28c38.48-4.27,76.62-11.17,114.15-20.64l58.63-14.78,79-62,91-99,79-158,87-202,53-244,79-290,112-323,124-409,95.67-300.53c2.22-6.97,5.06-13.72,8.48-20.18l63.84-120.4c6.63-12.5,15.37-23.75,25.85-33.26l13.14-11.93c16.38-14.86,36.47-25,58.16-29.33h0c7.89-1.58,15.92-2.37,23.97-2.37h45.9l116-4h73.09c6.6,0,13.18.53,19.69,1.6l5.21.85c22.24,3.63,43.04,13.34,60.1,28.05l50.78,43.78c6.73,5.8,12.8,12.31,18.11,19.43l37.75,50.54c10.7,14.33,18.13,30.83,21.76,48.35l23.5,113.4,66,331,116,567,120,489,108,364,70.12,146.15c8.55,17.82,19.47,34.4,32.47,49.29l21.75,24.9c13.71,15.69,29.58,29.35,47.15,40.56h0c20.86,13.31,43.82,22.98,67.92,28.61l46.03,10.75c16.32,3.81,33.03,5.74,49.8,5.74h55.01c15.79,0,31.54-1.71,46.97-5.1l108.78-23.9,5.24-.98c55.07-10.29,104.09-41.3,136.98-86.65l4.23-5.83c7.02-9.68,13.24-19.92,18.59-30.62l53.96-107.92,91-269,129-372,140-356,191-410,132-260,108-199,95-161"/>
      <path id="path_10" class="cls-1" d="m151,651.65l158,286,101,250,92,247,62,189,70,241,57,246,18,220,31,172,79,167,39,74,62,58,59.16,36.65c21.75,13.48,45.52,23.38,70.41,29.33l54.43,13.02,51.1-2.9c24.48-1.39,48.65-6.17,71.82-14.2l64.26-22.28c33.35-11.56,63.29-31.25,87.12-57.29l41-44.81c13.12-14.33,25.42-29.39,36.85-45.11l78.85-108.41,97-242,79-329,106-352,140-422,106-338,68.47-188.29c12.93-35.57,31.54-68.81,55.1-98.43h0c41.58-52.29,103.7-84.1,170.43-87.27h0l172-4,131,17h0c66.71,37.28,121.87,92.2,159.44,158.75h0c8.31,14.72,14.02,30.77,16.87,47.43l56.69,330.81,189,901,198.99,679.65c5.32,18.19,12.53,35.77,21.51,52.46l18.52,34.43c16.5,30.69,38.74,57.93,65.51,80.24l2.98,2.48c26.75,22.29,57.53,39.25,90.66,49.95l.44.14c30.04,9.7,61.53,14.1,93.07,13.02l64.12-2.21c22.05-.76,43.93-4.2,65.15-10.24l45.02-12.81c30.45-8.67,59.16-22.57,84.83-41.1h0c38.15-27.53,68.51-64.47,88.14-107.22l71.06-154.79,207-615,198-510,215-422,207-382"/>
      <path id="path_9" class="cls-1" d="m202,618.65l174,364,109,267,73,221,128,399,54,247,16,244,50,178,89,167,23.76,23.76c37.67,37.67,83.39,66.3,133.73,83.74h0c16.21,5.62,33.3,8.22,50.44,7.68l74.78-2.34c18.04-.56,35.81-4.48,52.42-11.55h0c54.57-23.24,103.33-58.28,142.76-102.59l37.11-41.7,104-151,85-259,97-387,380.16-1134.53c2.56-7.64,5.57-15.12,9.02-22.41l54.4-114.85c14.07-29.7,35.14-55.54,61.4-75.31h0c36.91-27.78,82.18-42.14,128.35-40.71l252.09,7.79c21.58.67,42.92,4.77,63.21,12.16l68.75,25.04c33.8,12.31,63.73,33.39,86.71,61.07l24.81,29.88c21.72,26.15,36.52,57.34,43.05,90.71l90.05,460.16,217,975,112,388,43.76,138.45c7.44,23.55,18.56,45.78,32.94,65.86l6.95,9.71c19.34,27.01,44.2,49.6,72.93,66.29h0c32.47,18.85,68.99,29.64,106.49,31.44l63.32,3.05c30.12,1.45,60.24-2.92,88.71-12.87l27.95-9.77c46.76-16.35,87.15-47.09,115.36-87.8l15.93-22.98c7.09-10.23,13.36-21.01,18.74-32.24l95.92-200.14,221-658,174-453,407-766"/>
      <path id="path_8" class="cls-1" d="m241,601.65l139,289,151,378,155,460,56,163,35,211,20,210,28,139,63,159,60,87,75,56,16.38,7.17c31.1,13.6,65.43,18.03,98.96,12.75l75.66-11.92h0c76.05-50.26,142.46-113.76,196.08-187.48l22.92-31.52,91-218,139-512,159-473,143-453,84.06-227.25c4.62-12.48,10.2-24.59,16.68-36.21l40.67-72.85c26.38-47.26,66.98-85.01,116.03-107.9h0c39.08-18.24,82.11-26.37,125.15-23.67l235.6,14.82c11.2.7,22.33,2.14,33.34,4.29l64.4,12.61c40.78,7.98,79.02,25.71,111.46,51.67l10.99,8.79c19.64,15.71,36.88,34.22,51.16,54.92l8.42,12.21c19.82,28.74,33.59,61.21,40.49,95.43l48.55,241.14,129,601,245,985,63.47,166.73c2.35,6.17,5.15,12.16,8.37,17.93l18.9,33.83c9.4,16.82,22.27,31.44,37.75,42.9h0c17.42,12.89,37.67,21.42,59.05,24.88l56.53,9.15c10.58,1.71,21.32,2.17,32.01,1.35l59.17-4.51c19.59-1.49,38.63-7.22,55.79-16.79l48.35-26.95c25.09-13.99,45.09-35.57,57.13-61.64l78.48-169.88,285-801,151-374,386-780"/>
      <path id="path_7" class="cls-1" d="m283,580.65l189,399,107,287,184,547,54,256,36,292,39.81,142.19c6.1,21.8,14.8,42.78,25.89,62.51l33.87,60.21c8.22,14.61,18.94,27.67,31.67,38.59l22.78,19.52c13.88,11.9,29.71,21.32,46.78,27.86l19.32,7.4c23.4,8.95,48.91,10.82,73.36,5.36l40.09-8.95c28.22-6.3,53.71-21.38,72.81-43.08l73.62-83.61,99-161,130-440,148-475,157-471,112-355,79.47-164.37c24.45-50.57,63.6-92.57,112.33-120.51l13.29-7.62c45.04-25.82,96.4-38.55,148.28-36.75l165.66,5.73c9.97.34,19.91,1.22,29.78,2.63l114.97,16.42c20.74,2.96,41.09,8.26,60.65,15.78l52.43,20.16c23.32,8.97,45.33,21.04,65.44,35.87l11.49,8.48c40.07,29.57,71.49,69.33,90.99,115.16h0c6.8,15.97,12.08,32.54,15.8,49.49l111.42,508.53,121,538,94,413,86,292,45.15,181.52c2.56,10.29,6.22,20.28,10.92,29.79l24.61,49.84c5.52,11.19,12.44,21.63,20.59,31.08l17.92,20.79c13.07,15.16,29.08,27.51,47.06,36.3h0c11.78,5.76,24.27,9.92,37.15,12.39l31.94,6.12c27.85,5.33,56.65,2.55,82.96-8.02l32.91-13.22c25.36-10.19,47.41-27.21,63.68-49.17l24.79-33.45c8.83-11.91,15.81-25.07,20.72-39.06l77.6-220.91,171-471,192-503,256-542,144-323"/>
      <path id="path_6" class="cls-1" d="m318,555.65l200,424,97,273,117,346,97,311,39,220,20,214,44,161,47.72,81.04c10.12,17.18,23.06,32.53,38.3,45.4l15.5,13.09c12.66,10.69,28.42,17.04,44.96,18.1l31.55,2.02c13.86.89,27.75-.95,40.9-5.42l26.9-9.14c36.56-12.42,68.37-35.87,91.06-67.12l18.11-24.97,93-151,87-297,117-341,161-526,122-380,98.74-287.91c5.49-16.01,12.65-31.4,21.36-45.92l56.49-94.15c21.25-35.42,51.23-64.8,87.07-85.33h0c31.81-18.22,67.35-28.96,103.92-31.41l138.83-9.3c9.72-.65,19.46-.71,29.18-.19l157.25,8.5c8.76.47,17.49,1.42,26.14,2.85l111.43,18.32c14.36,2.36,28.47,6.01,42.17,10.91l65.32,23.36c33.64,12.03,64.2,31.38,89.46,56.64l6.58,6.58c21.83,21.83,39.28,47.65,51.39,76.05l29.44,69.04c6.79,15.93,11.86,32.55,15.1,49.56l59.13,310.4,82,380,122,531,112,429,59,204,26.39,94.69c5.02,18.02,13.61,34.85,25.25,49.5l10.57,13.31c19.31,24.31,46.15,41.5,76.31,48.89l12.24,3c25.64,6.28,52.53,5.18,77.57-3.17h0c31.43-10.48,58.12-31.76,75.33-60.06l25.64-42.16c4.45-7.32,8.23-15.04,11.27-23.05l156.43-411.95,165-492,185-438,156-322,156-370"/>
      <path id="path_5" class="cls-1" d="m362,525.65l177,397,132,350,186,552,25,157,57,353,51,149,54.53,80.14c7.43,10.92,18.31,19.03,30.9,23.04l18.34,5.83c18.57,5.91,38.26,7.45,57.52,4.51l10.72-1.64c20.48-3.13,38.86-14.29,51.08-31.01l56.91-77.87,82-158,98-334,123-397,186-590,115.64-351.75c2.9-8.83,6.22-17.51,9.94-26.03l68.26-156.14c13.34-30.5,31.74-58.53,54.44-82.88l27.3-29.3c40.03-42.96,91.97-72.98,149.17-86.23l48.53-11.24c27.01-6.26,54.76-8.67,82.44-7.18l238.46,12.89c10.53.57,21.02,1.7,31.43,3.4l171.58,27.92c42.67,6.94,83.3,23.19,118.99,47.58h0c43.09,29.45,77.6,69.81,99.99,116.95l36.02,75.86c9.83,20.7,17.21,42.47,22,64.88l83.81,392.27,142,624,193,779,47.22,137.21c3.82,11.11,9.57,21.45,16.99,30.56l17.22,21.14c18.16,22.3,45.05,35.69,73.79,36.74h0c23.74.87,47.01-6.75,65.64-21.5l21.81-17.27c13.97-11.06,24.72-25.65,31.15-42.26l79.18-204.62,195-568,243-592,302-684"/>
      <path id="path_4" class="cls-1" d="m419,495.65l175,416,172,466,94,306,61,188,37,229,41,208,35.01,139.1c1.32,5.25,3.31,10.3,5.93,15.04l15.12,27.41c8.28,15.01,22.21,26.1,38.69,30.81l20.68,5.91c14.92,4.26,30.96,1.61,43.72-7.22l31.27-21.65c8.93-6.18,16.31-14.34,21.58-23.84l53-95.56,152-450,167-563,168-495,105.49-343.29c5.66-18.42,13.26-36.19,22.67-53.01l50.3-89.9c19.46-34.78,46.31-64.87,78.67-88.14l18.72-13.47c30.44-21.9,65.08-37.27,101.74-45.17l116.63-25.11c24.41-5.26,49.42-7.13,74.34-5.57l170.44,10.66,229.66,15c10.22.67,20.39,1.91,30.47,3.72l47.88,8.61c49.68,8.94,95.9,31.5,133.5,65.17h0c18.9,16.92,35.33,36.39,48.84,57.85l47.83,76c14.46,22.97,25.4,47.97,32.47,74.17l54.35,201.48,69,347,148,605,110,474,47.02,163.23c3.98,13.83,7.16,27.88,9.51,42.08l9.22,55.77c5.49,33.21,13.81,65.9,24.87,97.69l6.85,19.7c.29.82.78,1.53,1.31,2.22,0,0,0,0,0,0,39.15,51.44,117.3,73.95,152.21-13.71,14.59-36.63,31.36-74.15,40.49-102.6l108.51-338.39,176-494,151-372,192-437,127-298"/>
      <path id="path_3" class="cls-1" d="m459,477.65l156,362,71,177,89,234,67,206,68,198,57,181,31,160,43,237,32,128,20.37,63.55c2.94,9.18,9.72,16.62,18.57,20.42h0c17.14,7.35,36.98,4.19,51.01-8.11l19.09-16.75c9.84-8.63,17.51-19.44,22.41-31.57l59.55-147.54,160-500,287-912,126.85-365.96c8.08-23.3,18.4-45.77,30.82-67.07l20.9-35.86c36.21-62.13,89.26-112.74,153.03-146h0c43.2-22.53,90.32-36.56,138.8-41.34l176.57-17.41c22.64-2.23,45.44-2.43,68.12-.6l251.29,20.33c15.74,1.27,31.38,3.52,46.84,6.74l62.07,12.91c75.99,15.8,145.35,54.43,198.79,110.73l2.77,2.92c30.54,32.17,55.22,69.42,72.95,110.08l44.98,103.19c8.8,20.19,15.84,41.11,21.03,62.52l134.19,553.82,245,1074,53,206,18,57c16.4,62.01,64.03,62.29,86,8l123-398,287-756,252-589,131-301"/>
      <path id="path_2" class="cls-1" d="m497,460.65l90,212,94,223,83,220,66,164,79,247,66,200,51,165,24,153,31,168,12,56,17.55,53.5c5.99,13.55,13.93,19.46,24.07,21.26,15.22,2.71,30.44-4.9,38.12-18.31l33.73-73.23c8.35-18.12,15.41-36.81,21.13-55.92l65.4-218.3,157-494,298-929,99.55-238.03c21.65-51.77,60.27-94.64,109.5-121.57l22.28-12.18c61.68-33.73,130.05-53.41,200.23-57.62l247-14.82c30.92-1.86,61.94-1.58,92.82.82l219.65,17.06c28.55,2.22,56.72,7.84,83.93,16.76l44.19,14.48c60.16,19.71,114.04,55,156.15,102.27h0c22.36,25.09,41.08,53.2,55.61,83.51l72.09,150.32,176,663,134,592,54,298,51,227,24,117h0c16.58,125.95,63.32,22.14,75.42-35.31,7.18-34.08,15.87-67.83,26.58-100.97l133-411.72,365-933,215-490"/>
      <path id="path_1" class="cls-1" d="m4347,410.65l-97.69,262.16c-.21.56-.44,1.11-.68,1.66l-191.14,421.1c-.33.72-.62,1.46-.88,2.21l-184.32,531.04c-.19.56-.4,1.1-.63,1.64l-82.66,194.19c-.28.66-40.77,142.32-41,143l-36,110s-73,323-110,168c0,0-38.66-195.84-39-198l-12-140-144.83-696.2c-.11-.53-.24-1.06-.38-1.59l-191.17-694.97c-.41-1.49-.96-2.95-1.63-4.34l-144.31-300.25c-2.39-4.97-6.3-9.05-11.17-11.63l-179.82-95.53c-3.09-1.64-6.48-2.64-9.97-2.93l-362.03-30.41c-1.12-.09-2.25-.11-3.38-.06l-337.86,15.85c-.97.05-1.93.15-2.89.3l-87.65,14.09c-52.06,8.37-101.87,27.27-146.37,55.56l-47.88,30.43c-1.77,1.12-3.4,2.46-4.84,3.98l-41.3,43.32c-25.39,26.62-44.79,58.37-56.91,93.1l-130.61,374.28-239,741-138,459-54,211s-17.53,62.5-32.45,109.13c-6.99,21.85-36.84,24.42-47.52,4.11-9.66-18.37-18.46-39.1-19.94-55.76-.09-.98-.21-1.95-.4-2.92l-103.35-526.83c-.23-1.15-.53-2.29-.91-3.4l-195.18-569.61c-.17-.48-.34-.96-.54-1.43l-184.71-450.29-74-177"/>
      <path id="path_0" class="cls-1" d="m589,419.65l121,287,156.47,367.74c.36.84.68,1.69.97,2.55l84.56,251.71,92.14,244.71c.58,1.53,1.04,3.09,1.4,4.69l52.19,233.36c.19.83,37.6,359.17,54.28,349.24l36-132c7.55-4.49,43.5-166.58,46-175l44-171,286.73-944.1c.18-.6.38-1.2.6-1.79l141.42-388.99c25.07-68.95,67.01-130.52,122-179.09l2.71-2.4c83.2-73.48,186.4-119.38,296.1-131.89,47.55-5.42,96.5-11.01,134-15.29,43.56-4.97,87.45-6.31,131.23-4.01l366.13,19.23c41.87,2.2,83.28,9.87,123.16,22.83l54.47,17.69c77.86,25.29,146.41,73.24,196.87,137.71l10.01,12.79c1.71,2.19,3.16,4.57,4.31,7.11l109.04,240.47c.82,1.81,1.49,3.69,1.99,5.61l148.22,568.12,105,434,69.76,341.81c.16.79.35,1.58.57,2.37,0,0,27.34,128.05,27.67,175.83,3.34,474.06,110.85-117.49,117-133,98-247,169.78-484.51,171-488l54.67-185.06c.22-.63.46-1.25.71-1.86l238.62-576.09,96-219"/>
    </g>
  </g>
</svg>