<svg width="36" height="36" viewBox="0 0 36 36" fill="none" xmlns="http://www.w3.org/2000/svg">
<path d="M18 35.9999C14.44 35.9999 10.9598 34.9443 7.99975 32.9664C5.03966 30.9886 2.73255 28.1773 1.37018 24.8883C0.00779755 21.5992 -0.348661 17.98 0.345875 14.4884C1.04041 10.9967 2.75475 7.78941 5.2721 5.27207C8.64775 1.89642 13.2261 -3.55683e-08 18 0C22.7739 3.55683e-08 27.3523 1.89642 30.7279 5.27207C34.1036 8.64773 36 13.2261 36 18C36 22.7739 34.1036 27.3522 30.7279 30.7279C29.0604 32.4046 27.0768 33.7339 24.892 34.6388C22.7073 35.5438 20.3648 36.0064 18 35.9999ZM18 2.40003C9.39821 2.40003 2.40006 9.39819 2.40006 18C2.40006 26.6018 9.39821 33.5999 18 33.5999C26.6018 33.5999 33.6 26.6018 33.6 18C33.6 9.39819 26.6018 2.40003 18 2.40003Z" fill="#DDEC1F"/>
<path d="M15.8483 27.2485L14.1514 25.5515L21.7027 18L14.1514 10.4485L15.8483 8.75159L25.0968 18L15.8483 27.2485Z" fill="#DDEC1F"/>
</svg>
